PathFileType	4	(X/Y/Z)	D:\MotionData\Pi-Spi Study\20230118_AMCsubject1\Trimmed_right_abd_18001_rotated.trc
DataRate	CameraRate	NumFrames	NumMarkers	Units	OrigDataRate	OrigDataStartFrame	OrigNumFrames
200.00	200.00	       10	35	mm	200.00	1	       200
Frame#	Time	C7			Sternum			r_AMC1			r_AMC2			r_AMC3			l_AMC1			l_AMC2			l_AMC3			PX			T8			r_humerous			r_elbow_medial			r_elbow_lateral			r_forearm			r_wrist_radius			r_wrist_ulna			r_MCP_1			r_MCP_3			l_humerous			l_elbow_medial			l_elbow_lateral			l_forearm			l_wrist_radius			l_wrist_ulna			l_MCP_1			l_MCP_3			r_ASIS			r_PSIS			l_ASIS			l_PSIS			r_IC			l_IC			TS			AI			AA			
		X1	Y1	Z1	X2	Y2	Z2	X3	Y3	Z3	X4	Y4	Z4	X5	Y5	Z5	X6	Y6	Z6	X7	Y7	Z7	X8	Y8	Z8	X9	Y9	Z9	X10	Y10	Z10	X11	Y11	Z11	X12	Y12	Z12	X13	Y13	Z13	X14	Y14	Z14	X15	Y15	Z15	X16	Y16	Z16	X17	Y17	Z17	X18	Y18	Z18	X19	Y19	Z19	X20	Y20	Z20	X21	Y21	Z21	X22	Y22	Z22	X23	Y23	Z23	X24	Y24	Z24	X25	Y25	Z25	X26	Y26	Z26	X27	Y27	Z27	X28	Y28	Z28	X29	Y29	Z29	X30	Y30	Z30	X31	Y31	Z31	X32	Y32	Z32	X33	Y33	Z33	X34	Y34	Z34	X35	Y35	Z35	

1	0	192.4081	1374.4503	-244.3027	328.7991	1321.7687	-221.4683	155.773	1342.9456	-114.2999	184.7697	1378.6898	-96.1647	187.6115	1397.0162	-136.1874	221.0691	1323.0696	-396.7264	261.6198	1316.3675	-427.4433	283.1337	1354.3744	-398.9644	389.3883	1129.9586	-205.3179	158.1609	1191.114	-242.9672	264.7323	1475.0387	-77.2795	352.2496	1556.0903	15.4724	295.4544	1579.2284	15.2308	335.3526	1741.2404	28.9457	376.8852	1807.3597	4.6677	365.0246	1800.8617	55.3682	396.8361	1888.6509	7.8114	389.3438	1883.0944	54.5745	344.4835	1126.5129	-423.5064	295.9154	993.2256	-378.8823	287.6246	987.144	-431.1009	322.189	841.4753	-472.0726	335.711	764.3664	-456.0309	357.9735	774.8038	-491.7908	351.4611	688.8632	-466.5937	365.5745	698.3303	-508.866	351.6506	909.2069	-75.357	169.3631	929.7507	-168.2337	367.9188	893.0013	-334.2906	175.9136	922.9906	-270.923	269.5967	971.8661	-51.9844	281.3588	941.1651	-377.6905	100.7613	1295.5846	-157.6354	118.1545	1222.2261	-88.5698	135.7741	1390.619	-54.3823
2	0.005	192.3895	1374.4446	-244.304	328.7559	1321.7765	-221.4943	155.7566	1342.9528	-114.2946	184.7986	1378.6827	-96.1197	187.5851	1397.031	-136.1798	221.0353	1323.0781	-396.708	261.5706	1316.3474	-427.4427	283.0941	1354.3573	-398.9775	389.3994	1129.9747	-205.3617	158.1461	1191.1097	-242.975	264.7168	1475.0367	-77.2751	352.2437	1556.1055	15.4391	295.3916	1579.2213	15.2402	335.3295	1741.2372	28.9225	376.8712	1807.3677	4.6438	365.024	1800.8613	55.338	396.8252	1888.6481	7.791	389.3419	1883.0984	54.5474	344.4366	1126.5267	-423.5304	295.8402	993.1942	-378.8938	287.5562	987.121	-431.1351	322.1224	841.4756	-472.1103	335.6319	764.3556	-456.0514	357.8891	774.7885	-491.8025	351.3699	688.8407	-466.6198	365.5004	698.3257	-508.886	351.6517	909.2137	-75.3128	169.3538	929.7548	-168.2706	367.8926	893.022	-334.2981	175.9158	922.9832	-270.924	269.5557	971.8705	-51.9709	281.2743	941.2447	-377.6699	100.7332	1295.5617	-157.6234	118.0799	1222.1542	-88.4943	135.7391	1390.5605	-54.3574
3	0.01	192.3838	1374.4462	-244.3063	328.7277	1321.7787	-221.5277	155.7616	1342.9344	-114.2908	184.7922	1378.6974	-96.1319	187.5679	1397.0381	-136.1891	221.0248	1323.0518	-396.7113	261.4512	1316.2694	-427.3094	283.0505	1354.3446	-398.9754	389.3402	1129.9904	-205.3596	158.1314	1191.1143	-242.9645	264.7203	1475.0334	-77.2869	352.2313	1556.1034	15.4365	295.3595	1579.2311	15.2579	335.3471	1741.2555	28.891	376.8458	1807.3807	4.6287	365.0151	1800.8746	55.3118	396.8212	1888.6564	7.7397	389.3347	1883.1028	54.5344	344.3948	1126.5159	-423.5222	295.7848	993.1868	-378.8994	287.4989	987.12	-431.1576	322.0521	841.4494	-472.1362	336.2086	764.4145	-456.3034	357.8439	774.7982	-491.8431	351.2898	688.8458	-466.6802	365.4188	698.307	-508.9217	351.6557	909.2156	-75.3245	169.3425	929.7703	-168.2578	367.881	893.0218	-334.2952	175.8957	922.9852	-270.9191	269.5521	971.9039	-51.9748	281.3305	941.1417	-377.7265	100.7339	1295.5531	-157.6066	118.1322	1222.1328	-88.5329	135.7389	1390.5062	-54.3212
4	0.015	192.3737	1374.434	-244.3116	328.8097	1321.7274	-221.5594	155.7413	1342.9515	-114.2736	184.7718	1378.6906	-96.0898	187.5669	1397.0548	-136.1645	220.9674	1323.0674	-396.7242	261.4132	1316.2544	-427.2984	283.0315	1354.3485	-398.9828	389.3328	1129.9989	-205.3974	158.0958	1191.1224	-242.9609	264.6876	1475.037	-77.3061	352.2387	1556.1344	15.43	295.4142	1579.1529	15.2101	335.3528	1741.2521	28.8688	376.8504	1807.3778	4.6019	364.9959	1800.876	55.2972	396.8053	1888.6774	7.7382	389.3177	1883.1099	54.5154	344.3528	1126.5227	-423.5479	295.6767	993.1711	-378.9606	287.4305	987.1134	-431.1475	321.9553	841.4599	-472.1368	336.1014	764.3772	-456.3278	357.759	774.7953	-491.8526	350.492	689.1591	-467.0906	365.3098	698.305	-508.9366	351.6346	909.2438	-75.3018	169.3296	929.7472	-168.2511	367.8938	893.045	-334.3044	175.8916	922.9857	-270.9377	269.5369	971.871	-52.0046	281.2398	941.2222	-377.7064	100.8843	1295.4536	-157.6614	118.1894	1222.1497	-88.5617	135.7532	1390.477	-54.3188
5	0.02	192.3535	1374.4352	-244.3087	328.7795	1321.7655	-221.591	155.7493	1342.9353	-114.2712	184.7621	1378.6929	-96.0954	187.5782	1397.0535	-136.1793	220.9325	1323.0399	-396.7113	261.3659	1316.2469	-427.2973	282.9855	1354.3483	-398.9785	389.3457	1129.978	-205.405	158.0935	1191.1035	-242.9546	264.707	1475.051	-77.3125	352.2336	1556.1426	15.3952	295.3667	1579.2356	15.2187	335.3255	1741.2489	28.8368	376.8243	1807.384	4.601	364.9889	1800.8758	55.2889	396.7925	1888.6772	7.6942	389.2883	1883.1158	54.501	344.309	1126.4504	-423.5093	295.6714	993.153	-378.9554	287.4037	987.102	-431.1612	321.864	841.4498	-472.1598	335.3879	764.3215	-456.134	357.6612	774.7999	-491.8705	350.4127	689.1346	-467.0879	365.226	698.2891	-508.965	351.6339	909.2313	-75.3392	169.2955	929.7445	-168.256	367.8574	893.0242	-334.303	175.8788	922.9745	-270.9465	269.4823	971.9153	-51.9963	281.2649	941.1687	-377.7949	100.7129	1295.54	-157.5901	118.1861	1222.1051	-88.5421	135.7439	1390.4429	-54.2654
6	0.025	192.3462	1374.4303	-244.3112	328.6872	1321.7916	-221.5437	155.7371	1342.9513	-114.255	184.7751	1378.6957	-96.0965	187.5395	1397.0549	-136.1661	220.9125	1323.0299	-396.7384	261.3175	1316.2384	-427.3105	282.9645	1354.3441	-399.0057	389.2914	1130.006	-205.3982	158.0859	1191.0825	-242.9356	264.7019	1475.0389	-77.3416	352.261	1556.1531	15.3642	295.3386	1579.218	15.1981	335.342	1741.2632	28.8242	376.8133	1807.4067	4.5647	364.9763	1800.8778	55.2569	396.7538	1888.6727	7.6933	389.2838	1883.1245	54.4935	344.248	1126.4554	-423.5222	295.607	993.1518	-378.9658	287.3247	987.0992	-431.176	321.8227	841.4594	-472.1866	335.9364	764.358	-456.3888	357.6017	774.778	-491.897	350.3078	689.1061	-467.1096	365.1214	698.2954	-508.9765	351.6137	909.244	-75.363	169.3059	929.7419	-168.2715	367.8493	893.0463	-334.3213	175.8622	922.9639	-270.9447	269.4159	971.9502	-51.9609	281.2739	941.1453	-377.7254	100.6992	1295.5215	-157.5818	118.3888	1222.0088	-88.687	135.776	1390.3848	-54.2341
7	0.03	192.3228	1374.4336	-244.3068	328.667	1321.7817	-221.5491	155.7463	1342.9244	-114.2455	184.7373	1378.6495	-96.1191	187.5188	1397.0548	-136.1983	220.8428	1323.062	-396.756	261.3925	1316.3309	-427.4676	282.9393	1354.3391	-398.9937	389.2656	1129.9992	-205.4348	158.0628	1191.106	-242.9345	264.7038	1475.0464	-77.3519	352.2218	1556.1705	15.347	295.3348	1579.2301	15.1866	335.3062	1741.2537	28.8202	376.7772	1807.4036	4.5537	364.98	1800.8892	55.2359	396.7355	1888.7065	7.6759	389.267	1883.1238	54.4801	344.1911	1126.4805	-423.5227	295.4856	993.1516	-379.0431	287.2828	987.1018	-431.1877	321.7622	841.4521	-472.2106	335.8309	764.3359	-456.4143	357.4934	774.7693	-491.9086	350.1827	689.094	-467.1464	365.0364	698.2668	-508.9966	351.5807	909.2661	-75.3505	169.3027	929.7507	-168.2723	367.8417	893.0656	-334.3357	175.8584	922.9766	-270.9461	269.4394	971.9269	-52.0008	281.3714	941.116	-377.6958	100.85	1295.4154	-157.6532	118.4317	1221.97	-88.7194	135.7896	1390.3364	-54.2156
8	0.035	192.3264	1374.4321	-244.3473	328.6554	1321.7825	-221.5624	155.7342	1342.9391	-114.2412	184.7581	1378.6704	-96.1137	187.5067	1397.0499	-136.1949	220.8504	1323.0326	-396.7255	261.2666	1316.2378	-427.3202	282.9226	1354.3061	-399.0218	389.2875	1130.0128	-205.4122	158.0528	1191.0784	-242.9404	264.6831	1475.0422	-77.3627	352.2451	1556.1575	15.3214	295.3499	1579.2531	15.1321	335.3088	1741.2452	28.7886	376.7837	1807.4155	4.5202	364.9546	1800.8951	55.1933	396.714	1888.6932	7.6596	389.2312	1883.1433	54.4565	344.1831	1126.4602	-423.5345	295.4515	993.1467	-379.0397	287.2276	987.0903	-431.1875	321.6406	841.4301	-472.2581	335.7248	764.3256	-456.4403	357.4191	774.7575	-491.9269	350.1191	689.0831	-467.1614	364.9099	698.2552	-509.0054	351.5765	909.2696	-75.3592	169.2929	929.7268	-168.2749	367.8391	893.0526	-334.35	175.8396	922.9617	-270.9566	269.3996	971.952	-51.9858	281.2688	941.1273	-377.7126	100.6728	1295.4868	-157.5588	118.2296	1222.0006	-88.5548	135.7892	1390.3152	-54.2051
9	0.04	192.3013	1374.4302	-244.3416	328.6172	1321.7825	-221.5499	155.7188	1342.9169	-114.2614	184.7387	1378.6777	-96.0809	187.4949	1397.0559	-136.1807	220.8008	1323.052	-396.7428	261.2375	1316.2327	-427.3333	282.8839	1354.3325	-399.013	389.269	1130.0249	-205.4344	158.0282	1191.0706	-242.9243	264.6588	1475.056	-77.3646	352.2661	1556.1548	15.2892	295.3185	1579.2506	15.1508	335.2995	1741.2661	28.7868	376.7771	1807.4319	4.5104	364.9556	1800.9065	55.1799	396.6809	1888.7087	7.6148	389.2389	1883.1466	54.4219	344.0974	1126.4811	-423.5745	295.4112	993.1253	-379.0576	287.1659	987.0997	-431.19	321.5656	841.4217	-472.2779	335.6094	764.3102	-456.4806	357.3115	774.7377	-491.9439	350.0276	689.09	-467.1724	364.7899	698.2429	-509.0282	351.5836	909.2597	-75.3743	169.2585	929.7256	-168.274	367.7951	893.0443	-334.3517	175.8339	922.9597	-270.9626	269.4115	971.9099	-51.983	281.2968	941.128	-377.7863	100.6833	1295.4906	-157.561	118.4828	1221.9277	-88.8015	135.7935	1390.2976	-54.1792
10	0.045	192.283	1374.4253	-244.3282	328.6761	1321.7487	-221.6199	155.722	1342.9078	-114.231	184.7127	1378.6296	-96.1089	187.4906	1397.0749	-136.1817	220.7689	1323.0387	-396.7514	261.1886	1316.2231	-427.337	282.8691	1354.3325	-399.0244	389.2469	1130.0315	-205.4674	158.0279	1191.0684	-242.9489	264.6563	1475.048	-77.3975	352.2188	1556.2184	15.2741	295.3334	1579.2418	15.1404	335.2865	1741.261	28.7683	376.7416	1807.433	4.4842	364.9642	1800.9001	55.16	396.6598	1888.7102	7.5918	389.2165	1883.1532	54.3799	344.0992	1126.4524	-423.5522	295.3845	993.1285	-379.068	287.0685	987.0822	-431.2233	321.5139	841.4176	-472.2776	335.4984	764.3179	-456.5065	357.2304	774.734	-491.9613	349.8975	689.0715	-467.2017	364.6963	698.2255	-509.0292	351.5649	909.2573	-75.3675	169.2601	929.7496	-168.3074	367.8015	893.0441	-334.3449	175.805	922.9642	-270.9611	269.4324	971.9123	-52.0211	281.1916	941.2082	-377.7886	100.6697	1295.4596	-157.5686	118.2733	1221.953	-88.5942	135.7943	1390.2683	-54.1707
